<mxfile host="app.diagrams.net" modified="2024-01-15T07:55:33.572Z" agent="Mozilla/5.0 (Macintosh; Intel Mac OS X 10_15_7) AppleWebKit/605.1.15 (KHTML, like Gecko) Version/17.2.1 Safari/605.1.15" etag="ZxS92HMIA-5Zbwaox3an" version="22.1.18" type="github">
  <diagram name="第 1 页" id="da1Bf_BrSCuMTH8Hb2zf">
    <mxGraphModel dx="1434" dy="739" grid="1" gridSize="10" guides="1" tooltips="1" connect="1" arrows="1" fold="1" page="1" pageScale="1" pageWidth="827" pageHeight="1169" math="0" shadow="0">
      <root>
        <mxCell id="0" />
        <mxCell id="1" parent="0" />
        <mxCell id="qz03FU97uXABQ7EtowYA-3" value="schedule-engine-server" style="shape=umlLifeline;perimeter=lifelinePerimeter;whiteSpace=wrap;html=1;container=1;dropTarget=0;collapsible=0;recursiveResize=0;outlineConnect=0;portConstraint=eastwest;newEdgeStyle={&quot;curved&quot;:0,&quot;rounded&quot;:0};" vertex="1" parent="1">
          <mxGeometry x="110" y="90" width="100" height="980" as="geometry" />
        </mxCell>
        <mxCell id="qz03FU97uXABQ7EtowYA-46" value="" style="html=1;points=[[0,0,0,0,5],[0,1,0,0,-5],[1,0,0,0,5],[1,1,0,0,-5]];perimeter=orthogonalPerimeter;outlineConnect=0;targetShapes=umlLifeline;portConstraint=eastwest;newEdgeStyle={&quot;curved&quot;:0,&quot;rounded&quot;:0};" vertex="1" parent="qz03FU97uXABQ7EtowYA-3">
          <mxGeometry x="40" y="810" width="10" height="117" as="geometry" />
        </mxCell>
        <mxCell id="qz03FU97uXABQ7EtowYA-4" value="rds" style="shape=umlLifeline;perimeter=lifelinePerimeter;whiteSpace=wrap;html=1;container=1;dropTarget=0;collapsible=0;recursiveResize=0;outlineConnect=0;portConstraint=eastwest;newEdgeStyle={&quot;curved&quot;:0,&quot;rounded&quot;:0};" vertex="1" parent="1">
          <mxGeometry x="262" y="90" width="100" height="980" as="geometry" />
        </mxCell>
        <mxCell id="qz03FU97uXABQ7EtowYA-47" value="" style="html=1;points=[[0,0,0,0,5],[0,1,0,0,-5],[1,0,0,0,5],[1,1,0,0,-5]];perimeter=orthogonalPerimeter;outlineConnect=0;targetShapes=umlLifeline;portConstraint=eastwest;newEdgeStyle={&quot;curved&quot;:0,&quot;rounded&quot;:0};" vertex="1" parent="qz03FU97uXABQ7EtowYA-4">
          <mxGeometry x="50" y="97" width="10" height="50" as="geometry" />
        </mxCell>
        <mxCell id="qz03FU97uXABQ7EtowYA-6" value="mq" style="shape=umlLifeline;perimeter=lifelinePerimeter;whiteSpace=wrap;html=1;container=1;dropTarget=0;collapsible=0;recursiveResize=0;outlineConnect=0;portConstraint=eastwest;newEdgeStyle={&quot;curved&quot;:0,&quot;rounded&quot;:0};" vertex="1" parent="1">
          <mxGeometry x="450" y="90" width="100" height="980" as="geometry" />
        </mxCell>
        <mxCell id="qz03FU97uXABQ7EtowYA-50" value="" style="html=1;points=[[0,0,0,0,5],[0,1,0,0,-5],[1,0,0,0,5],[1,1,0,0,-5]];perimeter=orthogonalPerimeter;outlineConnect=0;targetShapes=umlLifeline;portConstraint=eastwest;newEdgeStyle={&quot;curved&quot;:0,&quot;rounded&quot;:0};" vertex="1" parent="qz03FU97uXABQ7EtowYA-6">
          <mxGeometry x="50" y="60" width="10" height="50" as="geometry" />
        </mxCell>
        <mxCell id="qz03FU97uXABQ7EtowYA-53" value="" style="html=1;points=[[0,0,0,0,5],[0,1,0,0,-5],[1,0,0,0,5],[1,1,0,0,-5]];perimeter=orthogonalPerimeter;outlineConnect=0;targetShapes=umlLifeline;portConstraint=eastwest;newEdgeStyle={&quot;curved&quot;:0,&quot;rounded&quot;:0};" vertex="1" parent="qz03FU97uXABQ7EtowYA-6">
          <mxGeometry x="50" y="890" width="10" height="50" as="geometry" />
        </mxCell>
        <mxCell id="qz03FU97uXABQ7EtowYA-7" value="开关机回调消息" style="html=1;verticalAlign=bottom;endArrow=block;curved=0;rounded=0;" edge="1" parent="1">
          <mxGeometry width="80" relative="1" as="geometry">
            <mxPoint x="499.5" y="170" as="sourcePoint" />
            <mxPoint x="159.5" y="170" as="targetPoint" />
          </mxGeometry>
        </mxCell>
        <mxCell id="qz03FU97uXABQ7EtowYA-10" value="根据pod信息" style="html=1;verticalAlign=bottom;endArrow=block;curved=0;rounded=0;" edge="1" parent="1">
          <mxGeometry width="80" relative="1" as="geometry">
            <mxPoint x="160" y="200" as="sourcePoint" />
            <mxPoint x="310" y="200" as="targetPoint" />
          </mxGeometry>
        </mxCell>
        <mxCell id="qz03FU97uXABQ7EtowYA-11" value="返回pod信息" style="html=1;verticalAlign=bottom;endArrow=open;dashed=1;endSize=8;curved=0;rounded=0;" edge="1" parent="1" target="qz03FU97uXABQ7EtowYA-3">
          <mxGeometry relative="1" as="geometry">
            <mxPoint x="310" y="230" as="sourcePoint" />
            <mxPoint x="390" y="230" as="targetPoint" />
          </mxGeometry>
        </mxCell>
        <mxCell id="qz03FU97uXABQ7EtowYA-19" value="Alt" style="shape=umlFrame;whiteSpace=wrap;html=1;pointerEvents=0;recursiveResize=0;container=1;collapsible=0;width=170;" vertex="1" parent="1">
          <mxGeometry x="90" y="457" width="490" height="413" as="geometry" />
        </mxCell>
        <mxCell id="qz03FU97uXABQ7EtowYA-20" value="[pod开机完成]" style="text;html=1;" vertex="1" parent="qz03FU97uXABQ7EtowYA-19">
          <mxGeometry width="100" height="20" relative="1" as="geometry">
            <mxPoint x="20" y="40" as="offset" />
          </mxGeometry>
        </mxCell>
        <mxCell id="qz03FU97uXABQ7EtowYA-21" value="[pod关机完成]" style="line;strokeWidth=1;dashed=1;labelPosition=center;verticalLabelPosition=bottom;align=left;verticalAlign=top;spacingLeft=20;spacingTop=15;html=1;whiteSpace=wrap;" vertex="1" parent="qz03FU97uXABQ7EtowYA-19">
          <mxGeometry y="230" width="490" height="10" as="geometry" />
        </mxCell>
        <mxCell id="qz03FU97uXABQ7EtowYA-22" value="将pod状态设置为已开机" style="html=1;verticalAlign=bottom;endArrow=block;curved=0;rounded=0;" edge="1" parent="qz03FU97uXABQ7EtowYA-19" target="qz03FU97uXABQ7EtowYA-4">
          <mxGeometry x="0.0033" width="80" relative="1" as="geometry">
            <mxPoint x="70" y="90" as="sourcePoint" />
            <mxPoint x="150" y="90" as="targetPoint" />
            <mxPoint as="offset" />
          </mxGeometry>
        </mxCell>
        <mxCell id="qz03FU97uXABQ7EtowYA-23" value="pod状态设置完成" style="html=1;verticalAlign=bottom;endArrow=open;dashed=1;endSize=8;curved=0;rounded=0;" edge="1" parent="qz03FU97uXABQ7EtowYA-19" target="qz03FU97uXABQ7EtowYA-3">
          <mxGeometry relative="1" as="geometry">
            <mxPoint x="220" y="120" as="sourcePoint" />
            <mxPoint x="140" y="120" as="targetPoint" />
          </mxGeometry>
        </mxCell>
        <mxCell id="qz03FU97uXABQ7EtowYA-24" value="将pod放入实例池" style="html=1;verticalAlign=bottom;endArrow=block;curved=0;rounded=0;" edge="1" parent="qz03FU97uXABQ7EtowYA-19">
          <mxGeometry x="0.0033" width="80" relative="1" as="geometry">
            <mxPoint x="70" y="155" as="sourcePoint" />
            <mxPoint x="222" y="155" as="targetPoint" />
            <mxPoint as="offset" />
          </mxGeometry>
        </mxCell>
        <mxCell id="qz03FU97uXABQ7EtowYA-25" value="放入实例池完成" style="html=1;verticalAlign=bottom;endArrow=open;dashed=1;endSize=8;curved=0;rounded=0;" edge="1" parent="qz03FU97uXABQ7EtowYA-19" target="qz03FU97uXABQ7EtowYA-3">
          <mxGeometry x="-0.0033" relative="1" as="geometry">
            <mxPoint x="220" y="190" as="sourcePoint" />
            <mxPoint x="140" y="190" as="targetPoint" />
            <mxPoint as="offset" />
          </mxGeometry>
        </mxCell>
        <mxCell id="qz03FU97uXABQ7EtowYA-26" value="将pod状态设置为已关机" style="html=1;verticalAlign=bottom;endArrow=block;curved=0;rounded=0;" edge="1" parent="qz03FU97uXABQ7EtowYA-19">
          <mxGeometry x="0.0033" width="80" relative="1" as="geometry">
            <mxPoint x="70" y="297" as="sourcePoint" />
            <mxPoint x="222" y="297" as="targetPoint" />
            <mxPoint as="offset" />
          </mxGeometry>
        </mxCell>
        <mxCell id="qz03FU97uXABQ7EtowYA-27" value="pod状态设置完成" style="html=1;verticalAlign=bottom;endArrow=open;dashed=1;endSize=8;curved=0;rounded=0;" edge="1" parent="qz03FU97uXABQ7EtowYA-19">
          <mxGeometry relative="1" as="geometry">
            <mxPoint x="220" y="330" as="sourcePoint" />
            <mxPoint x="70" y="330" as="targetPoint" />
          </mxGeometry>
        </mxCell>
        <mxCell id="qz03FU97uXABQ7EtowYA-36" value="将pod从实例池中删除&lt;br&gt;（处理后台手动关机）" style="html=1;verticalAlign=bottom;endArrow=block;curved=0;rounded=0;" edge="1" parent="qz03FU97uXABQ7EtowYA-19">
          <mxGeometry width="80" relative="1" as="geometry">
            <mxPoint x="70" y="366" as="sourcePoint" />
            <mxPoint x="222" y="366" as="targetPoint" />
            <mxPoint as="offset" />
          </mxGeometry>
        </mxCell>
        <mxCell id="qz03FU97uXABQ7EtowYA-37" value="删除完成" style="html=1;verticalAlign=bottom;endArrow=open;dashed=1;endSize=8;curved=0;rounded=0;" edge="1" parent="qz03FU97uXABQ7EtowYA-19">
          <mxGeometry x="-0.0033" relative="1" as="geometry">
            <mxPoint x="220" y="396" as="sourcePoint" />
            <mxPoint x="70" y="396" as="targetPoint" />
            <mxPoint as="offset" />
          </mxGeometry>
        </mxCell>
        <mxCell id="qz03FU97uXABQ7EtowYA-40" value="" style="html=1;points=[[0,0,0,0,5],[0,1,0,0,-5],[1,0,0,0,5],[1,1,0,0,-5]];perimeter=orthogonalPerimeter;outlineConnect=0;targetShapes=umlLifeline;portConstraint=eastwest;newEdgeStyle={&quot;curved&quot;:0,&quot;rounded&quot;:0};" vertex="1" parent="qz03FU97uXABQ7EtowYA-19">
          <mxGeometry x="60" y="73" width="10" height="140" as="geometry" />
        </mxCell>
        <mxCell id="qz03FU97uXABQ7EtowYA-44" value="" style="html=1;points=[[0,0,0,0,5],[0,1,0,0,-5],[1,0,0,0,5],[1,1,0,0,-5]];perimeter=orthogonalPerimeter;outlineConnect=0;targetShapes=umlLifeline;portConstraint=eastwest;newEdgeStyle={&quot;curved&quot;:0,&quot;rounded&quot;:0};" vertex="1" parent="qz03FU97uXABQ7EtowYA-19">
          <mxGeometry x="60" y="288" width="10" height="117" as="geometry" />
        </mxCell>
        <mxCell id="qz03FU97uXABQ7EtowYA-48" value="" style="html=1;points=[[0,0,0,0,5],[0,1,0,0,-5],[1,0,0,0,5],[1,1,0,0,-5]];perimeter=orthogonalPerimeter;outlineConnect=0;targetShapes=umlLifeline;portConstraint=eastwest;newEdgeStyle={&quot;curved&quot;:0,&quot;rounded&quot;:0};" vertex="1" parent="qz03FU97uXABQ7EtowYA-19">
          <mxGeometry x="220" y="63" width="10" height="137" as="geometry" />
        </mxCell>
        <mxCell id="qz03FU97uXABQ7EtowYA-49" value="" style="html=1;points=[[0,0,0,0,5],[0,1,0,0,-5],[1,0,0,0,5],[1,1,0,0,-5]];perimeter=orthogonalPerimeter;outlineConnect=0;targetShapes=umlLifeline;portConstraint=eastwest;newEdgeStyle={&quot;curved&quot;:0,&quot;rounded&quot;:0};" vertex="1" parent="qz03FU97uXABQ7EtowYA-19">
          <mxGeometry x="220" y="268" width="10" height="137" as="geometry" />
        </mxCell>
        <mxCell id="qz03FU97uXABQ7EtowYA-28" value="消费完成" style="html=1;verticalAlign=bottom;endArrow=open;dashed=1;endSize=8;curved=0;rounded=0;" edge="1" parent="1">
          <mxGeometry relative="1" as="geometry">
            <mxPoint x="161.25" y="1000" as="sourcePoint" />
            <mxPoint x="500.75" y="1000" as="targetPoint" />
          </mxGeometry>
        </mxCell>
        <mxCell id="qz03FU97uXABQ7EtowYA-29" value="redis" style="shape=umlLifeline;perimeter=lifelinePerimeter;whiteSpace=wrap;html=1;container=1;dropTarget=0;collapsible=0;recursiveResize=0;outlineConnect=0;portConstraint=eastwest;newEdgeStyle={&quot;curved&quot;:0,&quot;rounded&quot;:0};" vertex="1" parent="1">
          <mxGeometry x="610" y="90" width="100" height="980" as="geometry" />
        </mxCell>
        <mxCell id="qz03FU97uXABQ7EtowYA-54" value="" style="html=1;points=[[0,0,0,0,5],[0,1,0,0,-5],[1,0,0,0,5],[1,1,0,0,-5]];perimeter=orthogonalPerimeter;outlineConnect=0;targetShapes=umlLifeline;portConstraint=eastwest;newEdgeStyle={&quot;curved&quot;:0,&quot;rounded&quot;:0};" vertex="1" parent="qz03FU97uXABQ7EtowYA-29">
          <mxGeometry x="50" y="147" width="10" height="73" as="geometry" />
        </mxCell>
        <mxCell id="qz03FU97uXABQ7EtowYA-55" value="" style="html=1;points=[[0,0,0,0,5],[0,1,0,0,-5],[1,0,0,0,5],[1,1,0,0,-5]];perimeter=orthogonalPerimeter;outlineConnect=0;targetShapes=umlLifeline;portConstraint=eastwest;newEdgeStyle={&quot;curved&quot;:0,&quot;rounded&quot;:0};" vertex="1" parent="qz03FU97uXABQ7EtowYA-29">
          <mxGeometry x="50" y="810" width="10" height="80" as="geometry" />
        </mxCell>
        <mxCell id="qz03FU97uXABQ7EtowYA-30" value="根据pod的pool_id加锁" style="html=1;verticalAlign=bottom;endArrow=block;curved=0;rounded=0;" edge="1" parent="1">
          <mxGeometry width="80" relative="1" as="geometry">
            <mxPoint x="160" y="260" as="sourcePoint" />
            <mxPoint x="659.5" y="260" as="targetPoint" />
          </mxGeometry>
        </mxCell>
        <mxCell id="qz03FU97uXABQ7EtowYA-32" value="返回加锁结果" style="html=1;verticalAlign=bottom;endArrow=open;dashed=1;endSize=8;curved=0;rounded=0;" edge="1" parent="1">
          <mxGeometry x="-0.001" relative="1" as="geometry">
            <mxPoint x="660" y="294" as="sourcePoint" />
            <mxPoint x="159.5" y="294" as="targetPoint" />
            <mxPoint as="offset" />
          </mxGeometry>
        </mxCell>
        <mxCell id="qz03FU97uXABQ7EtowYA-33" value="Opt" style="shape=umlFrame;whiteSpace=wrap;html=1;pointerEvents=0;" vertex="1" parent="1">
          <mxGeometry x="90" y="320" width="490" height="110" as="geometry" />
        </mxCell>
        <mxCell id="qz03FU97uXABQ7EtowYA-34" value="[加锁失败]" style="text;html=1;strokeColor=none;fillColor=none;align=center;verticalAlign=middle;whiteSpace=wrap;rounded=0;" vertex="1" parent="1">
          <mxGeometry x="95" y="354" width="60" height="30" as="geometry" />
        </mxCell>
        <mxCell id="qz03FU97uXABQ7EtowYA-35" value="稍后重新消费" style="html=1;verticalAlign=bottom;endArrow=open;dashed=1;endSize=8;curved=0;rounded=0;" edge="1" parent="1">
          <mxGeometry x="0.0015" relative="1" as="geometry">
            <mxPoint x="162.25" y="387" as="sourcePoint" />
            <mxPoint x="501.75" y="387" as="targetPoint" />
            <mxPoint as="offset" />
          </mxGeometry>
        </mxCell>
        <mxCell id="qz03FU97uXABQ7EtowYA-38" value="解锁" style="html=1;verticalAlign=bottom;endArrow=block;curved=0;rounded=0;" edge="1" parent="1">
          <mxGeometry width="80" relative="1" as="geometry">
            <mxPoint x="162" y="920" as="sourcePoint" />
            <mxPoint x="661.5" y="920" as="targetPoint" />
          </mxGeometry>
        </mxCell>
        <mxCell id="qz03FU97uXABQ7EtowYA-39" value="解锁完成" style="html=1;verticalAlign=bottom;endArrow=open;dashed=1;endSize=8;curved=0;rounded=0;" edge="1" parent="1">
          <mxGeometry x="-0.001" relative="1" as="geometry">
            <mxPoint x="658.5" y="958" as="sourcePoint" />
            <mxPoint x="158" y="958" as="targetPoint" />
            <mxPoint as="offset" />
          </mxGeometry>
        </mxCell>
        <mxCell id="qz03FU97uXABQ7EtowYA-41" value="" style="html=1;points=[[0,0,0,0,5],[0,1,0,0,-5],[1,0,0,0,5],[1,1,0,0,-5]];perimeter=orthogonalPerimeter;outlineConnect=0;targetShapes=umlLifeline;portConstraint=eastwest;newEdgeStyle={&quot;curved&quot;:0,&quot;rounded&quot;:0};" vertex="1" parent="1">
          <mxGeometry x="151" y="365" width="10" height="45" as="geometry" />
        </mxCell>
        <mxCell id="qz03FU97uXABQ7EtowYA-42" value="" style="html=1;points=[[0,0,0,0,5],[0,1,0,0,-5],[1,0,0,0,5],[1,1,0,0,-5]];perimeter=orthogonalPerimeter;outlineConnect=0;targetShapes=umlLifeline;portConstraint=eastwest;newEdgeStyle={&quot;curved&quot;:0,&quot;rounded&quot;:0};" vertex="1" parent="1">
          <mxGeometry x="152" y="165" width="10" height="140" as="geometry" />
        </mxCell>
        <mxCell id="qz03FU97uXABQ7EtowYA-51" value="" style="html=1;points=[[0,0,0,0,5],[0,1,0,0,-5],[1,0,0,0,5],[1,1,0,0,-5]];perimeter=orthogonalPerimeter;outlineConnect=0;targetShapes=umlLifeline;portConstraint=eastwest;newEdgeStyle={&quot;curved&quot;:0,&quot;rounded&quot;:0};" vertex="1" parent="1">
          <mxGeometry x="500" y="360" width="10" height="50" as="geometry" />
        </mxCell>
      </root>
    </mxGraphModel>
  </diagram>
</mxfile>
